<svg width="138" height="36" viewBox="0 0 138 36" fill="none" xmlns="http://www.w3.org/2000/svg">
<g clip-path="url(#clip0_2_17678)">
<path d="M29.9991 15.4622C29.9991 19.6074 28.3289 23.3572 25.6302 26.0812C25.3183 26.4066 24.9878 26.7069 24.6452 26.9951C23.3734 28.3352 22.4515 30.0194 22.0523 31.9041L16.8303 31.919V13.6549L21.3681 18.2132C21.7357 18.576 22.2092 18.7578 22.6892 18.7578C23.1691 18.7578 23.6491 18.576 24.0102 18.2132C24.7399 17.4746 24.7399 16.2912 24.0102 15.5526L16.3717 7.71075C15.642 6.97776 14.2476 6.96284 13.5179 7.69583L5.71128 15.5377C4.98159 16.2763 4.98159 17.4597 5.71128 18.1983C6.44097 18.9313 7.62463 18.9313 8.35432 18.1983L12.8857 13.6399V31.9041H7.92171C7.49745 29.9634 6.53845 28.2289 5.19789 26.8636C5.19789 26.8636 5.1914 26.8571 5.17933 26.8515C4.97973 26.6388 4.75507 26.4318 4.53133 26.2444C1.73882 23.5083 0 19.6885 0 15.4631C0 7.14096 6.71948 0.391113 14.9967 0.391113C23.274 0.391113 30 7.14096 30 15.4622H29.9991Z" fill="#0749E6"/>
<path d="M19.4699 33.8218H10.5325C10.0906 33.8218 9.73228 34.1817 9.73228 34.6257V34.8607C9.73228 35.3047 10.0906 35.6646 10.5325 35.6646H19.4699C19.9118 35.6646 20.2701 35.3047 20.2701 34.8607V34.6257C20.2701 34.1817 19.9118 33.8218 19.4699 33.8218Z" fill="#0749E6"/>
<path d="M41.6607 12.9087C42.1455 12.9087 42.5383 13.3033 42.5383 13.7902V22.473C42.5383 23.3612 42.7439 24.048 43.1551 24.5316C43.5663 25.0152 44.1915 25.257 45.029 25.257C45.8664 25.257 46.4999 25.0118 46.9262 24.5198C47.3524 24.0295 47.5664 23.3478 47.5664 22.473V13.7902C47.5664 13.3033 47.9592 12.9087 48.444 12.9087H51.2522C51.737 12.9087 52.1298 13.3033 52.1298 13.7902V22.473C52.1298 23.9859 51.8122 25.2754 51.1753 26.3434C50.5384 27.4113 49.6742 28.2139 48.5794 28.7512C47.4845 29.2886 46.2709 29.5572 44.937 29.5572C43.6031 29.5572 42.4113 29.2886 41.3632 28.7512C40.3151 28.2139 39.4927 27.4146 38.896 26.3551C38.2992 25.2956 38 24.001 38 22.473V13.7902C38 13.3033 38.3928 12.9087 38.8776 12.9087H41.6624H41.6607Z" fill="#0749E6"/>
<path d="M60.7195 16.6502C61.3714 16.2908 62.1387 16.1129 63.0246 16.1129C64.0643 16.1129 65.0071 16.3866 65.8529 16.9306C66.6987 17.4763 67.3657 18.2554 67.8554 19.2696C68.3435 20.2838 68.5893 21.4676 68.5893 22.8243C68.5893 24.181 68.3452 25.3699 67.8554 26.3908C67.3673 27.4117 66.6987 28.1958 65.8529 28.7415C65.0071 29.2873 64.0643 29.5593 63.0246 29.5593C62.1403 29.5593 61.3748 29.3796 60.7312 29.022C60.0877 28.6643 59.5795 28.1807 59.2067 27.5729V34.783C59.2067 35.27 58.8139 35.6646 58.3292 35.6646H55.5209C55.0362 35.6646 54.6433 35.27 54.6433 34.783V17.1606C54.6433 16.6737 55.0362 16.2791 55.5209 16.2791H58.3292C58.8139 16.2791 59.2067 16.6737 59.2067 17.1606V18.1043C59.5644 17.4965 60.0676 17.0129 60.7195 16.6552V16.6502ZM63.2686 20.8245C62.8106 20.3493 62.2473 20.1109 61.5804 20.1109C60.9134 20.1109 60.3501 20.3526 59.8921 20.8362C59.4341 21.3198 59.2051 21.9814 59.2051 22.8243C59.2051 23.6672 59.4341 24.3523 59.8921 24.8359C60.3501 25.3195 60.9117 25.5613 61.5804 25.5613C62.249 25.5613 62.8106 25.3161 63.2686 24.8241C63.7267 24.3338 63.9557 23.6672 63.9557 22.8243C63.9557 21.9814 63.7267 21.3013 63.2686 20.8245Z" fill="#0749E6"/>
<path d="M86.5425 28.5766C85.5094 28.0309 84.6987 27.2518 84.1103 26.2376C83.5203 25.2251 83.2261 24.0313 83.2261 22.6594C83.2261 21.2876 83.5253 20.1189 84.122 19.1047C84.7188 18.0922 85.5345 17.3114 86.5659 16.7657C87.5972 16.22 88.7657 15.948 90.0695 15.948C91.3733 15.948 92.5401 16.2217 93.5731 16.7657C94.6045 17.3114 95.4202 18.0905 96.0169 19.1047C96.6137 20.1189 96.9129 21.3027 96.9129 22.6594C96.9129 24.0161 96.6137 25.205 96.0169 26.2259C95.4202 27.2468 94.6011 28.0309 93.5614 28.5766C92.5217 29.1224 91.3499 29.3944 90.0461 29.3944C88.7423 29.3944 87.5738 29.1224 86.5425 28.5766ZM91.6408 24.7063C92.067 24.2311 92.281 23.5494 92.281 22.6594C92.281 21.7695 92.067 21.0928 91.6408 20.6243C91.2128 20.1575 90.6896 19.9224 90.0695 19.9224C89.4493 19.9224 88.9295 20.1558 88.5099 20.6243C88.0904 21.0911 87.8814 21.7695 87.8814 22.6594C87.8814 23.5494 88.082 24.2495 88.4865 24.7163C88.8894 25.1831 89.4092 25.4182 90.0461 25.4182C90.683 25.4182 91.2128 25.1798 91.6408 24.7046V24.7063Z" fill="#0749E6"/>
<path d="M112.136 16.9955V28.3514C112.136 28.8384 111.743 29.233 111.258 29.233H108.426C107.942 29.233 107.549 28.8384 107.549 28.3514V27.8863C107.549 27.7251 107.348 27.6462 107.243 27.7704C106.894 28.1785 106.461 28.5227 105.942 28.8014C105.259 29.1675 104.476 29.3505 103.59 29.3505C102.069 29.3505 100.871 28.8468 99.9933 27.8426C99.1157 26.8368 98.6777 25.47 98.6777 23.7389V16.9972C98.6777 16.5102 99.0705 16.1156 99.5553 16.1156H102.34C102.825 16.1156 103.218 16.5102 103.218 16.9972V23.1545C103.218 23.9034 103.415 24.4911 103.811 24.9193C104.207 25.3491 104.73 25.5624 105.382 25.5624C106.034 25.5624 106.578 25.3491 106.965 24.9193C107.353 24.4911 107.547 23.9017 107.547 23.1545V16.9972C107.547 16.5102 107.94 16.1156 108.425 16.1156H111.256C111.741 16.1156 112.134 16.5102 112.134 16.9972L112.136 16.9955Z" fill="#0749E6"/>
<path d="M122.447 26.2076V28.3502C122.447 28.8371 122.054 29.2317 121.57 29.2317H120.468C117.132 29.2317 115.463 27.5711 115.463 24.2514V19.926H114.735C114.25 19.926 113.857 19.5314 113.857 19.0445V16.9943C113.857 16.5073 114.25 16.1127 114.735 16.1127H115.463V13.814C115.463 13.3271 115.856 12.9325 116.341 12.9325H119.173C119.657 12.9325 120.05 13.3271 120.05 13.814V16.1127H121.548C122.033 16.1127 122.425 16.5073 122.425 16.9943V19.0445C122.425 19.5314 122.033 19.926 121.548 19.926H120.05V24.322C120.05 24.6813 120.132 24.9382 120.294 25.0944C120.456 25.2505 120.732 25.3278 121.12 25.3278H121.57C122.054 25.3278 122.447 25.7223 122.447 26.2093V26.2076Z" fill="#0749E6"/>
<path d="M136.685 17.5058C137.561 18.5116 138.001 19.8717 138.001 21.5861V28.3513C138.001 28.8382 137.608 29.2328 137.123 29.2328H134.315C133.83 29.2328 133.437 28.8382 133.437 28.3513V22.1939C133.437 21.445 133.243 20.8573 132.856 20.4292C132.468 20.001 131.948 19.7861 131.296 19.7861C130.644 19.7861 130.077 20.001 129.69 20.4292C129.302 20.8573 129.108 21.4467 129.108 22.1939V28.3513C129.108 28.8382 128.715 29.2328 128.23 29.2328H125.422C124.937 29.2328 124.545 28.8382 124.545 28.3513V12.8093C124.545 12.3224 124.937 11.9278 125.422 11.9278H128.23C128.715 11.9278 129.108 12.3224 129.108 12.8093V17.4722C129.108 17.6334 129.307 17.7123 129.412 17.5914C129.773 17.1767 130.22 16.8291 130.749 16.547C131.44 16.181 132.235 15.998 133.135 15.998C134.624 15.998 135.808 16.5 136.685 17.5058Z" fill="#0749E6"/>
<path d="M75.4156 19.0493L78.1102 13.2563C78.1553 13.1673 78.1921 13.1018 78.2222 13.0598C78.2522 13.0195 78.2823 12.9893 78.3107 12.9708C78.3408 12.9524 78.3726 12.9406 78.406 12.9373C78.4395 12.9339 78.4779 12.9238 78.523 12.9087H82.8173C82.8691 12.9087 82.9126 12.9255 82.946 12.9591C82.9794 12.9927 82.9962 13.0313 82.9962 13.0766C82.9962 13.1589 82.9443 13.2529 82.8407 13.357L77.5535 22.7584V29.0233C77.5535 29.3742 77.383 29.5505 77.042 29.5505H73.7039C73.5551 29.5505 73.4415 29.5035 73.3596 29.4111C73.2776 29.3171 73.2375 29.1895 73.2375 29.0249V22.7383L67.9604 13.3587C67.8634 13.2613 67.815 13.169 67.815 13.0783C67.815 13.033 67.83 12.9943 67.8601 12.9608C67.8902 12.9272 67.9303 12.9104 67.9821 12.9104H72.2764C72.3282 12.9255 72.37 12.9339 72.3984 12.9389C72.4285 12.9423 72.4586 12.954 72.487 12.9725C72.5171 12.991 72.5472 13.0212 72.5756 13.0615C72.6057 13.1018 72.6458 13.1673 72.6976 13.258L75.4139 19.0509L75.4156 19.0493Z" fill="#0749E6"/>
</g>
<defs>
<clipPath id="clip0_2_17678">
<rect width="138.001" height="35.2735" fill="white" transform="translate(0 0.391113)"/>
</clipPath>
</defs>
</svg>
